<svg width="60" height="60" viewBox="0 0 60 60" fill="none" xmlns="http://www.w3.org/2000/svg">
<rect width="60" height="60" rx="30" fill="#F7B103"/>
<path d="M28.5762 15.0879C23.7363 15.873 20.1269 19.6934 19.6348 24.5449C19.5996 24.8789 19.5703 25.6465 19.5703 26.2559V27.3633L19.207 27.3691C17.8008 27.3809 16.6113 28.3887 16.3125 29.8359C16.2422 30.1816 16.2246 30.7383 16.2422 33.0703C16.2598 35.8828 16.2598 35.8887 16.4004 36.2402C16.5879 36.7148 16.8867 37.1543 17.2148 37.4473C17.5488 37.7402 18.1934 38.0625 18.6269 38.1445C18.7969 38.1738 19.6406 38.2031 20.5019 38.2031C21.9609 38.2031 22.0723 38.1973 22.2539 38.0859C22.6289 37.8574 22.6172 38.0391 22.6172 32.8652C22.6172 29.4434 22.5996 28.1074 22.5469 27.9375C22.5117 27.8145 22.3887 27.6328 22.2832 27.5391C22.0957 27.375 22.0547 27.3633 21.5918 27.3633H21.0937V26.5254C21.0996 24.8789 21.2285 23.8477 21.5742 22.793C22.0547 21.3164 22.8164 20.1211 23.9707 19.0137C25.1894 17.8477 26.6953 17.0625 28.418 16.6934C28.9453 16.5762 29.1973 16.5586 30.2051 16.5586C31.4941 16.5645 32.0039 16.6406 33.0644 16.9922C35.5664 17.8301 37.6055 19.7578 38.5898 22.2129C39.0879 23.4609 39.1992 24.1055 39.2402 25.9043L39.2754 27.3516L38.7422 27.3691C38.3144 27.3867 38.1914 27.416 38.0859 27.5098C37.7871 27.7734 37.793 27.6621 37.793 32.8418C37.793 38.0801 37.7812 37.9219 38.1035 38.0977C38.1738 38.1387 38.4668 38.1855 38.7598 38.2031L39.2871 38.2324L38.7598 38.7656C38.4668 39.0586 38.0684 39.4102 37.8633 39.5449C37.0137 40.1191 35.8828 40.5117 34.9922 40.5586L34.5703 40.5762L34.4062 40.1016C34.3125 39.8438 34.1426 39.4805 34.0195 39.2988C33.5508 38.5898 32.6719 37.9746 31.8457 37.7637C31.4414 37.6582 30.5508 37.6465 30.1055 37.7402C29.6719 37.8281 28.916 38.2031 28.5586 38.5078C27.9609 39.0176 27.5215 39.709 27.334 40.459C27.2226 40.9102 27.2226 41.7539 27.3398 42.2109C27.668 43.5059 28.7461 44.5898 30.0293 44.9121C30.4805 45.0234 31.4004 45.0234 31.8457 44.9121C33.1992 44.5605 34.1836 43.6055 34.5117 42.3164L34.5762 42.0703H34.9453C36.0996 42.0703 37.5762 41.5781 38.748 40.7988C39.3516 40.3945 40.2715 39.457 40.7519 38.7422C41.0039 38.373 41.2031 38.1328 41.2793 38.1211C41.8769 38.0039 42.1172 37.9395 42.4219 37.7812C43.1074 37.4414 43.5762 36.8203 43.7109 36.0762C43.7519 35.8594 43.7695 34.7578 43.7578 32.9707L43.7402 30.2051L43.582 29.7363C43.1426 28.4414 42.1758 27.5156 41.1387 27.3926L40.7812 27.3516V26.0801C40.7812 24.3047 40.6699 23.5137 40.248 22.2363C39.6738 20.5195 38.8301 19.1836 37.4883 17.9004C36.6855 17.127 35.9531 16.6113 34.9512 16.1133C34.043 15.6621 33.3398 15.4102 32.373 15.1934C31.8223 15.0703 31.541 15.0469 30.4101 15.0293C29.4492 15.0117 28.9512 15.0293 28.5762 15.0879ZM21.0351 32.7891V36.6914L19.9687 36.668C18.7441 36.6445 18.5332 36.5859 18.1582 36.1699C17.7832 35.7539 17.7832 35.7598 17.7832 32.8125V30.1465L17.9414 29.8242C18.1289 29.4434 18.1816 29.373 18.4629 29.1621C18.75 28.9453 19.0254 28.8984 20.1152 28.8926L21.0351 28.8867V32.7891ZM41.2266 29.0156C41.4844 29.1562 41.8301 29.5547 41.9883 29.9062C42.2285 30.4336 42.2519 30.8145 42.2344 33.3984C42.2168 36.0762 42.2226 36.0234 41.8359 36.3457C41.5605 36.5801 41.3027 36.6328 40.2715 36.6621L39.3164 36.6914V32.7832V28.875L40.1836 28.8984C40.834 28.916 41.0859 28.9453 41.2266 29.0156ZM31.8574 39.4102C32.5195 39.7266 32.918 40.2539 33.0527 40.9863C33.2285 41.9414 32.7539 42.8262 31.8223 43.2832C31.5351 43.4238 31.4238 43.4473 30.9668 43.4473C30.5215 43.4473 30.3867 43.4238 30.1113 43.2949C29.2676 42.8965 28.7051 41.9824 28.7871 41.127C28.8691 40.2188 29.6191 39.3867 30.5273 39.2051C30.9551 39.1172 31.3945 39.1816 31.8574 39.4102Z" fill="black"/>
</svg>
