<svg width="60" height="60" viewBox="0 0 60 60" fill="none" xmlns="http://www.w3.org/2000/svg">
<rect width="60" height="60" rx="30" fill="white" fill-opacity="0.19"/>
<g clip-path="url(#clip0_29_13)">
<path d="M22.7519 21.3574C18.9258 24.8555 15.7383 27.8027 15.6797 27.9082C15.5977 28.0488 15.5801 28.1543 15.6094 28.3125C15.6445 28.5234 16.0254 28.8926 18.0586 30.75C18.5566 31.207 18.8144 31.1836 19.4355 30.6152L19.8633 30.2227V35.3848V40.5469H18.8965H17.9297L17.7422 40.7168L17.5488 40.8867L17.5312 42.6094C17.5195 43.5527 17.5312 44.4141 17.5488 44.5254C17.5723 44.6309 17.6484 44.7832 17.7246 44.8594L17.8652 45H30H42.1348L42.2754 44.8594C42.3516 44.7832 42.4277 44.6309 42.4512 44.5254C42.4687 44.4141 42.4805 43.5527 42.4687 42.6094L42.4512 40.8867L42.2578 40.7168L42.0703 40.5469H41.1035H40.1367V35.3848V30.2227L40.5352 30.5859C41.0332 31.0488 41.2266 31.1367 41.5137 31.0371C41.6484 30.9902 42.1934 30.5273 43.0371 29.748C44.4434 28.4414 44.5195 28.3418 44.3613 27.9609C44.3262 27.873 43.5293 27.1055 42.5977 26.2559L40.8984 24.709L40.8867 21.2637L40.8691 17.8125L40.7051 17.6543L40.5469 17.4902L38.6016 17.4727C36.6211 17.4551 36.4277 17.4727 36.2578 17.6836C36.2051 17.748 36.1758 18.1348 36.1523 19.0547L36.123 20.3379L33.2051 17.6719L30.2871 15H30H29.7187L22.7519 21.3574ZM36.416 22.3008C39.9316 25.5117 42.8086 28.1543 42.8203 28.1777C42.8437 28.2422 41.3789 29.6016 41.3144 29.5781C41.2793 29.5723 38.8945 27.3984 36 24.7559C33.1113 22.1133 30.6269 19.8516 30.4863 19.7285C30.2812 19.5645 30.1699 19.5117 30 19.5117C29.8301 19.5117 29.7187 19.5645 29.5137 19.7285C29.373 19.8516 26.8887 22.1133 24 24.7559C21.1055 27.3984 18.7207 29.5723 18.6855 29.5781C18.6211 29.6016 17.1562 28.2422 17.1797 28.1777C17.2031 28.1191 29.959 16.4648 30 16.4648C30.0176 16.4648 32.9062 19.0898 36.416 22.3008ZM39.668 21.1348V23.5781L39.4805 23.4023C39.375 23.3027 38.8594 22.834 38.3379 22.3535L37.3828 21.4863V20.0918V18.6914H38.5254H39.668V21.1348ZM34.4766 25.0488L38.9004 29.0918L38.9062 34.8164V40.5469H30H21.0937V34.8164L21.0996 29.0918L25.5352 25.0371C27.9727 22.8047 29.9883 20.9883 30.0059 20.9941C30.0293 21 32.0391 22.8223 34.4766 25.0488ZM41.25 42.8027V43.8281H30H18.75V42.8027V41.7773H30H41.25V42.8027Z" fill="#F7B103"/>
<path d="M25.0723 26.9473L24.9023 27.1172V32.9238V38.7246L25.0371 38.877C25.3125 39.1992 25.4238 39.1758 27.7734 38.2676C28.9453 37.8105 29.9531 37.4414 30 37.4414C30.0469 37.4414 31.0488 37.8105 32.2207 38.2617C33.4629 38.7363 34.4414 39.082 34.5527 39.082C34.6992 39.082 34.8047 39.0352 34.9277 38.9121L35.0977 38.7422V32.9297V27.1172L34.9277 26.9473L34.7578 26.7773H30H25.2422L25.0723 26.9473ZM33.8672 32.7832V37.5527L33.6504 37.4766C33.5273 37.4297 32.7012 37.1133 31.8164 36.7734C30.8965 36.4219 30.1172 36.1523 30.0059 36.1523C29.8535 36.1523 27.6562 36.9551 26.209 37.541C26.1504 37.5645 26.1328 36.5918 26.1328 32.7891V28.0078H30H33.8672V32.7832Z" fill="#F7B103"/>
<path d="M30.9082 30.6973C30.8145 30.7559 30.1582 31.3828 29.4609 32.0918L28.1836 33.375V33.6445C28.1836 34.0547 28.3711 34.248 28.7637 34.248H29.0625L30.4395 32.8711C31.8047 31.5 31.8164 31.4883 31.8164 31.2363C31.8164 30.9258 31.7461 30.7852 31.5234 30.6738C31.2949 30.5566 31.1191 30.5625 30.9082 30.6973Z" fill="#F7B103"/>
<path d="M27.9492 31.2129C27.4746 31.4004 27.4219 32.1328 27.8672 32.3379C28.2949 32.5312 28.6992 32.3144 28.752 31.8691C28.7813 31.6347 28.7637 31.5761 28.6172 31.4121C28.4473 31.2246 28.1426 31.1367 27.9492 31.2129Z" fill="#F7B103"/>
<path d="M31.5293 32.543C31.3535 32.6367 31.2363 32.8477 31.2305 33.0645C31.2246 33.6094 31.8281 33.8848 32.2383 33.5215C32.4023 33.375 32.4316 33.3105 32.4316 33.0762C32.4316 32.8418 32.4023 32.7773 32.2383 32.6309C32.0273 32.4434 31.7695 32.4082 31.5293 32.543Z" fill="#F7B103"/>
</g>
<defs>
<clipPath id="clip0_29_13">
<rect width="30" height="30" fill="white" transform="translate(15 15)"/>
</clipPath>
</defs>
</svg>
