<svg width="60" height="60" viewBox="0 0 60 60" fill="none" xmlns="http://www.w3.org/2000/svg">
<rect width="60" height="60" rx="30" fill="white" fill-opacity="0.19"/>
<path d="M20.7949 16.6406C20.4668 16.8164 20.1738 17.1914 20.0977 17.543C20.0508 17.7539 20.0391 20.2207 20.0508 25.9863L20.0684 34.1309L20.1973 34.3652C20.2617 34.4941 20.3965 34.6699 20.4902 34.7578C20.8535 35.1094 20.7363 35.0977 24.9024 35.0977H28.711V35.7773V36.457L28.4824 36.252C28.1309 35.9355 27.9082 35.8418 27.5098 35.8359C26.7656 35.8242 26.25 36.3105 26.2031 37.0664C26.168 37.5879 26.2793 37.7812 27.1875 38.7891C28.1836 39.8906 28.5996 40.5059 28.7695 41.1504C28.8399 41.4141 28.9688 41.7598 29.0449 41.9238C29.2559 42.3281 29.8242 42.9023 30.2461 43.125C30.8496 43.4473 31.043 43.4766 32.7598 43.4766C34.5469 43.4766 34.7988 43.4297 35.4375 43.0078C36.0176 42.6211 36.3692 42.1582 36.6328 41.4492C36.75 41.127 36.7617 40.9805 36.7852 39.0762C36.8086 36.9434 36.791 36.7441 36.5449 36.3809C36.3223 36.0527 36.0235 35.918 35.4902 35.918C35.2383 35.918 34.9805 35.9414 34.9219 35.9766C34.834 36.0234 34.8047 36.0117 34.7754 35.9238C34.7227 35.7422 34.3067 35.4023 34.0606 35.3379C33.7852 35.2617 33.4512 35.2559 33.2637 35.3262C33.1348 35.3789 33.1172 35.3672 33.0879 35.2383L33.0645 35.0977H35.9883C39.1758 35.0977 39.1524 35.0977 39.5098 34.7578C39.6035 34.6699 39.7383 34.4941 39.8027 34.3652L39.9317 34.1309L39.9492 25.9863C39.961 20.2207 39.9492 17.7539 39.9024 17.543C39.8262 17.1855 39.5332 16.8105 39.1934 16.6406C38.9766 16.5234 38.8067 16.5234 29.9883 16.5234C21.2344 16.5293 21 16.5293 20.7949 16.6406ZM38.8945 17.3438C39.1465 17.5137 39.1992 17.7363 39.1992 18.6855V19.5703H30H20.8008V18.6855C20.8008 17.5781 20.8594 17.4199 21.3281 17.2617C21.375 17.25 25.3184 17.2383 30.0879 17.2441C37.6641 17.2559 38.7774 17.2676 38.8945 17.3438ZM39.1875 27.1641L39.1699 33.9961L38.9766 34.166L38.7832 34.3418L35.3438 34.3125C33.4512 34.3008 31.8281 34.2832 31.7285 34.2773C31.6348 34.2773 31.4942 34.2891 31.4238 34.3066L31.2891 34.3359V33.1699C31.2891 32.5254 31.2656 31.9336 31.2305 31.8516L31.1719 31.6992H32.0039C32.7246 31.6992 32.8652 31.6816 33.0879 31.5762C34.043 31.1133 34.043 29.7363 33.0879 29.2207C32.8418 29.0918 32.8242 29.0918 30 29.0918C27.1875 29.0918 27.1582 29.0918 26.918 29.2207C25.9512 29.7363 25.9512 31.1133 26.9121 31.5762C27.1348 31.6816 27.2754 31.6992 27.9961 31.6992H28.8281L28.7695 31.8516C28.7344 31.9336 28.711 32.5254 28.711 33.1699V34.3359H24.961H21.211L21.0235 34.166L20.8301 33.9961L20.8125 27.1641L20.8008 20.332H30H39.1992L39.1875 27.1641ZM32.877 30.0469C33.1055 30.2988 33.1055 30.5391 32.877 30.7676L32.707 30.9375H30H27.293L27.1231 30.7676C27.0117 30.6504 26.9531 30.5332 26.9531 30.4219C26.9531 30.2109 27.1934 29.9004 27.3809 29.8652C27.4512 29.8477 28.6758 29.8418 30.1055 29.8477L32.707 29.8535L32.877 30.0469ZM30.2051 31.7695C30.5274 31.916 30.5274 31.9102 30.5274 35.1152C30.5274 37.8516 30.5332 38.0742 30.6328 38.1621C30.7969 38.3086 31.0547 38.3145 31.1953 38.168C31.2774 38.0918 31.2891 37.875 31.2891 36.7324V35.3906L31.4531 35.2207C31.6817 34.9688 31.9746 34.957 32.1973 35.1855L32.3438 35.3262V36.668C32.3438 37.8867 32.3555 38.0273 32.4492 38.1445C32.584 38.3086 32.918 38.3203 33.0293 38.168C33.082 38.0977 33.1055 37.8281 33.1055 37.2891C33.1055 36.4336 33.1524 36.252 33.4043 36.1172C33.6387 36 33.7735 36.0176 33.9785 36.1875L34.1602 36.3398V37.1191C34.1602 37.5527 34.1836 37.9688 34.2188 38.0566C34.2949 38.2559 34.5293 38.3438 34.7344 38.25C34.8867 38.1738 34.8926 38.1504 34.9219 37.5879C34.9395 37.2656 34.9863 36.9434 35.0274 36.8789C35.1738 36.6152 35.6836 36.5742 35.9004 36.8086C35.9942 36.9141 36.0059 37.0898 36.0235 38.6953C36.0352 39.8145 36.0176 40.5996 35.9766 40.8398C35.8008 41.8418 35.0449 42.5684 34.0254 42.7207C33.5332 42.791 31.875 42.7852 31.4063 42.7148C30.4336 42.5566 29.7656 41.9238 29.502 40.8984C29.3086 40.1426 28.8457 39.4512 27.7266 38.2207C27.3692 37.8281 27.0527 37.4531 27.0176 37.3887C26.9356 37.2422 26.9356 36.9961 27.0117 36.8496C27.0996 36.6855 27.4102 36.5449 27.586 36.5918C27.668 36.6094 28.002 36.8906 28.336 37.2129C28.9746 37.834 29.127 37.9043 29.3555 37.6758C29.4668 37.5645 29.4727 37.4766 29.4727 34.8457C29.4785 31.9512 29.4785 31.9453 29.7715 31.7812C29.9473 31.6816 30.0176 31.6816 30.2051 31.7695Z" fill="#F7B103"/>
<path d="M22.0899 17.5371C21.6035 17.789 21.4278 18.416 21.6973 18.8906C21.8907 19.2363 22.0899 19.3535 22.5176 19.3828C22.8282 19.4004 22.9102 19.3828 23.086 19.2656C23.1973 19.1894 23.3496 19.0371 23.4258 18.9258C23.543 18.7558 23.5606 18.6621 23.543 18.3691C23.5137 17.9355 23.3496 17.6718 23.0039 17.5136C22.6817 17.3672 22.3946 17.373 22.0899 17.5371ZM22.7344 18.2519C22.8867 18.4394 22.6582 18.7265 22.459 18.5976C22.3184 18.5097 22.3008 18.375 22.4121 18.2578C22.5293 18.1406 22.6407 18.1406 22.7344 18.2519Z" fill="#F7B103"/>
<path d="M24.6094 17.5371C24.0821 17.8125 23.9239 18.5391 24.2813 19.0078C24.4922 19.2891 24.7149 19.3945 25.0957 19.3945C25.4649 19.3945 25.7227 19.248 25.9453 18.9258C26.0625 18.7559 26.0801 18.6621 26.0625 18.3691C26.0332 17.9355 25.8692 17.6719 25.5235 17.5137C25.2012 17.3672 24.9141 17.373 24.6094 17.5371ZM25.2539 18.252C25.4063 18.4395 25.1778 18.7266 24.9786 18.5977C24.8379 18.5098 24.8203 18.375 24.9317 18.2578C25.0489 18.1406 25.1602 18.1406 25.2539 18.252Z" fill="#F7B103"/>
<path d="M27.1289 17.5371C26.6016 17.8125 26.4434 18.5391 26.8008 19.0078C27.0118 19.2891 27.2344 19.3945 27.6153 19.3945C27.9844 19.3945 28.2422 19.248 28.4649 18.9258C28.5821 18.7559 28.5996 18.6621 28.5821 18.3691C28.5528 17.9355 28.3887 17.6719 28.043 17.5137C27.7207 17.3672 27.4336 17.373 27.1289 17.5371ZM27.7969 18.293C27.9258 18.498 27.6387 18.7266 27.4512 18.5742C27.334 18.4746 27.3399 18.2988 27.4688 18.2285C27.6036 18.1465 27.7149 18.1699 27.7969 18.293Z" fill="#F7B103"/>
<path d="M28.9688 20.8008C26.4844 21.4512 25.2539 24.1934 26.3965 26.5137C27 27.7324 28.125 28.5293 29.4903 28.7109C31.9922 29.0449 34.1836 26.9941 34.0254 24.4629C33.92 22.6875 32.7188 21.2344 31.0078 20.7949C30.4278 20.6484 29.543 20.6484 28.9688 20.8008ZM31.1367 21.6445C32.666 22.2305 33.5567 23.8652 33.1934 25.4121C32.8418 26.9063 31.5117 27.9727 30 27.9727C28.4883 27.9727 27.1582 26.9063 26.8067 25.4121C26.4082 23.7246 27.4571 22.0254 29.209 21.5273C29.6836 21.3926 30.6387 21.4512 31.1367 21.6445Z" fill="#F7B103"/>
<path d="M29.7187 21.8672C29.6777 21.9082 29.6484 22.0723 29.6484 22.2422C29.6484 22.5176 29.6367 22.5469 29.5019 22.5821C29.4258 22.5996 29.2617 22.7051 29.1445 22.8106C28.5937 23.291 28.5527 24.2285 29.0625 24.6856C29.2617 24.8672 29.918 25.1367 30.1582 25.1367C30.1934 25.1367 30.2871 25.1895 30.375 25.2598C30.7148 25.5235 30.4512 26.1328 30 26.1328C29.8242 26.1328 29.7422 26.0977 29.625 25.9512C29.543 25.8516 29.4727 25.7168 29.4727 25.6406C29.4727 25.4239 29.3086 25.2539 29.0977 25.2539C28.8516 25.2539 28.7109 25.4063 28.7109 25.6875C28.7109 26.1211 28.998 26.5606 29.4316 26.7832C29.6367 26.8887 29.6484 26.9121 29.6484 27.1875C29.6484 27.4336 29.6719 27.4922 29.8008 27.5742C30.0996 27.7735 30.4102 27.5156 30.4102 27.0645C30.4102 26.8828 30.4394 26.8418 30.5801 26.7832C30.9844 26.6133 31.2891 26.1094 31.2891 25.6055C31.2891 24.8965 30.9375 24.5274 30.0762 24.3223C29.6426 24.2168 29.4727 24.0703 29.4727 23.7949C29.4727 23.4375 29.7891 23.1973 30.1465 23.2852C30.3457 23.3379 30.5273 23.5489 30.5273 23.7305C30.5273 24.0938 30.9609 24.293 31.1894 24.0352C31.4824 23.7129 31.1016 22.834 30.5859 22.6172C30.4512 22.5586 30.416 22.5059 30.3867 22.2481C30.3633 22.084 30.3164 21.9141 30.2812 21.8731C30.2051 21.7793 29.8125 21.7735 29.7187 21.8672Z" fill="#F7B103"/>
</svg>
