<svg width="60" height="60" viewBox="0 0 60 60" fill="none" xmlns="http://www.w3.org/2000/svg">
<rect width="60" height="60" rx="30" fill="white" fill-opacity="0.19"/>
<path d="M26.8945 16.0605C23.1563 16.4941 19.7754 18.627 17.8008 21.8086C15.7969 25.0371 15.3926 29.0625 16.7109 32.6367C17.9941 36.1113 20.8828 38.8945 24.4043 40.0488C25.8809 40.5352 27.0234 40.6934 28.6816 40.6465C30.1465 40.6055 31.4414 40.3652 32.6074 39.9082L33.0586 39.7324L33.0352 40.3887C33 41.3262 32.8418 41.6309 31.9395 42.5566C31.3008 43.207 31.2598 43.2656 31.2598 43.4883C31.2598 43.6758 31.2949 43.752 31.4238 43.8633L31.5879 44.0039H37.6641C44.0977 43.998 43.8457 44.0098 43.9922 43.7285C44.1504 43.4355 44.0918 43.3242 43.3828 42.5859C42.668 41.8359 42.4277 41.4609 42.3105 40.9102C42.2695 40.7109 42.2461 39.8379 42.2461 38.5195C42.2461 36.2578 42.2402 36.1875 41.9062 35.8418C41.5781 35.4961 41.4023 35.4492 40.4004 35.4492H39.4922V34.4883C39.4922 33.5977 39.5039 33.5098 39.6387 33.1992C40.043 32.2793 40.3652 31.1367 40.5234 30.0176C40.6289 29.2676 40.6406 27.6211 40.5469 26.8652C40.248 24.4512 39.2754 22.2246 37.6816 20.3262C35.7012 17.959 32.7305 16.3945 29.5781 16.0547C28.916 15.9844 27.5273 15.9902 26.8945 16.0605ZM29.748 16.7871C32.2969 17.1211 34.5 18.1875 36.3516 19.9805C37.752 21.334 38.7129 22.8457 39.3164 24.6328C40.0371 26.7598 40.1074 28.875 39.5391 31.3887C39.5332 31.4121 39.5156 31.125 39.498 30.75C39.4688 30.1289 39.4512 30.0527 39.3164 29.9062C39.1465 29.7246 38.8594 29.5898 38.6309 29.5898H38.4668V28.4062C38.4668 27.1348 38.4199 26.7598 38.1445 25.6934C37.2773 22.3711 34.6816 19.6465 31.4063 18.6035C28.8809 17.8066 26.1914 18 23.8184 19.1602C22.5762 19.7637 21.4863 20.5898 20.6191 21.5859C16.5234 26.2734 17.5078 33.498 22.7051 36.8906C25.623 38.7949 29.3965 39.0703 32.5664 37.6113L33.0469 37.3887V38.1738V38.9531L32.625 39.1289C31.998 39.3867 31.3125 39.5918 30.5098 39.7617C29.5137 39.9727 27.8145 40.0195 26.7656 39.873C22.8105 39.3164 19.5059 36.9082 17.7773 33.3105C14.6074 26.7305 18.3457 18.8496 25.4883 17.0391C26.8242 16.7051 28.3828 16.6113 29.748 16.7871ZM29.1855 18.873C33.1992 19.2773 36.5098 22.1309 37.5059 26.0273C37.752 26.9941 37.8516 28.2949 37.7578 29.2266L37.7168 29.5781L37.0254 29.6016C36.4395 29.6191 36.3105 29.6367 36.1699 29.7422C35.8477 29.9766 35.8008 30.1699 35.8008 31.1836V32.1035L35.4375 31.8926C35.2383 31.7754 34.998 31.6816 34.9043 31.6816C34.582 31.6816 34.459 32.0508 34.7051 32.2676C34.8516 32.3965 35.666 32.8711 35.748 32.8711C35.7773 32.8711 35.8008 33.1582 35.8008 33.5039V34.1426L35.4258 34.5762C34.752 35.3555 34.6523 35.4316 34.2305 35.4609C33.9434 35.4785 33.8145 35.5254 33.6211 35.6602C33.3574 35.8418 33.1055 36.2168 33.1055 36.4219C33.1055 36.5156 32.9707 36.6094 32.4844 36.8496C29.8594 38.1504 26.8594 38.1738 24.2109 36.9141C20.25 35.0273 18.0879 30.6738 18.9844 26.3848C19.2305 25.1953 19.6934 24.1113 20.3965 23.0449C20.9766 22.1777 22.1191 21.0352 22.9863 20.4551C24.8848 19.2012 27.0293 18.6504 29.1855 18.873ZM35.8008 35.3613C35.8008 35.4082 35.7598 35.4492 35.707 35.4492C35.625 35.4492 35.625 35.4316 35.6836 35.3613C35.7246 35.3145 35.7656 35.2734 35.7773 35.2734C35.7891 35.2734 35.8008 35.3145 35.8008 35.3613ZM41.543 39.6211C41.543 41.3438 41.7188 41.8711 42.5918 42.7852L43.0781 43.3008H41.666H40.2539V41.4434C40.2539 39.8027 40.2422 39.5742 40.1543 39.4805C40.0371 39.3516 39.7969 39.3457 39.6563 39.4746C39.5566 39.5625 39.5508 39.7031 39.5508 41.4375V43.3008H38.7891H38.0273V42.5508C38.0273 41.9707 38.0098 41.7773 37.9336 41.6719C37.8398 41.5312 37.623 41.502 37.4355 41.6016C37.3359 41.6602 37.3242 41.7363 37.3242 42.4805V43.3008H36.5332H35.7422V42.0879C35.7422 41.0449 35.7305 40.8633 35.6426 40.7695C35.5195 40.6289 35.3027 40.6348 35.1563 40.7812C35.0449 40.8926 35.0391 40.9746 35.0391 42.0996V43.3008H33.627H32.209L32.7129 42.7793C33.5977 41.8594 33.75 41.4141 33.75 39.7148V38.5547H37.6465H41.543V39.6211Z" fill="#F7B103"/>
<path d="M28.043 19.6055C27.9668 19.6758 27.9492 19.8398 27.9492 20.4199C27.9492 21.1055 27.9551 21.1523 28.0781 21.2344C28.2539 21.3574 28.3945 21.3516 28.5352 21.2109C28.6406 21.1055 28.6523 21.0176 28.6523 20.4316C28.6523 19.9277 28.6289 19.7402 28.5586 19.6406C28.4531 19.4883 28.1777 19.4648 28.043 19.6055Z" fill="#F7B103"/>
<path d="M23.8418 20.6836C23.6191 20.8125 23.6543 21.0176 24 21.6269C24.3633 22.2656 24.5039 22.3886 24.7559 22.2773C25.0723 22.1308 24.9902 21.8027 24.4336 20.9648C24.2227 20.6426 24.041 20.5605 23.8418 20.6836Z" fill="#F7B103"/>
<path d="M32.332 20.6953C32.1621 20.8242 31.6406 21.7969 31.6406 21.9785C31.6406 22.0957 31.6875 22.1777 31.793 22.248C31.9336 22.3359 31.9629 22.3359 32.1035 22.2597C32.291 22.1543 32.8711 21.1816 32.8711 20.9648C32.8711 20.7012 32.5371 20.5371 32.332 20.6953Z" fill="#F7B103"/>
<path d="M28.125 22.2012C27.9844 22.2422 27.7148 22.541 27.1523 23.2793C26.9531 23.543 26.8945 23.6777 26.8945 23.8359C26.8945 23.959 27.0117 24.7324 27.1465 25.5586L27.4043 27.0645L27.252 27.1758C26.9824 27.375 26.7598 27.8672 26.7539 28.2656C26.748 28.4648 26.7656 28.6875 26.7891 28.7695C26.8242 28.9043 26.7656 28.957 26.0039 29.4727C24.5801 30.4336 24.4922 30.5039 24.4922 30.6973C24.4922 30.9082 24.627 31.0547 24.8262 31.0547C24.9199 31.0547 25.377 30.7793 26.0859 30.2871L27.1992 29.5195L27.5273 29.6836C27.8086 29.8242 27.9316 29.8535 28.3008 29.8535C28.8047 29.8477 29.0215 29.7598 29.3965 29.4023L29.6367 29.1621L31.084 29.4141C32.2617 29.6133 32.5547 29.6484 32.6836 29.5957C32.9531 29.4785 33.9492 28.6289 34.0078 28.4648C34.043 28.3594 34.043 28.2598 33.9961 28.1602C33.9316 28.0195 32.9883 27.2227 32.707 27.0762C32.5898 27.0176 32.332 27.041 31.1016 27.2461L29.6309 27.4922L29.4023 27.2578L29.168 27.0234L29.4434 25.4297C29.5898 24.5449 29.7012 23.7715 29.6836 23.7012C29.6484 23.5664 28.6934 22.3184 28.5762 22.2598C28.4355 22.1836 28.2656 22.1602 28.125 22.2012ZM28.7461 27.627C29.1035 27.8613 29.2266 28.3887 29.0039 28.752C28.6465 29.3379 27.8379 29.2969 27.5332 28.6699C27.3809 28.3594 27.416 28.0957 27.6387 27.8262C27.9316 27.4805 28.3945 27.3984 28.7461 27.627Z" fill="#F7B103"/>
<path d="M20.7539 23.7715C20.6367 23.8183 20.5605 24.0644 20.6191 24.2168C20.6543 24.3105 20.8828 24.4746 21.2637 24.6914C21.7734 24.9785 21.8789 25.0195 22.0195 24.9726C22.207 24.914 22.3242 24.6562 22.2305 24.5039C22.1426 24.3633 21.0879 23.7305 20.9473 23.7363C20.8828 23.7363 20.7949 23.7539 20.7539 23.7715Z" fill="#F7B103"/>
<path d="M34.9512 24.0703C34.3652 24.4101 34.3652 24.4101 34.3652 24.6387C34.3652 24.8262 34.3945 24.8848 34.5176 24.9551C34.6582 25.0312 34.6934 25.0254 34.9863 24.8789C35.1621 24.7851 35.4492 24.6152 35.625 24.498C35.8887 24.3281 35.9531 24.2519 35.9648 24.0996C35.9766 23.9648 35.9473 23.8945 35.8477 23.8242C35.7773 23.7715 35.6777 23.7305 35.625 23.7305C35.5781 23.7305 35.2734 23.8828 34.9512 24.0703Z" fill="#F7B103"/>
<path d="M19.5 28.1543C19.4531 28.2598 19.4473 28.3594 19.4883 28.4648L19.541 28.623H20.3613H21.1816L21.2344 28.4648C21.2754 28.3594 21.2695 28.2598 21.2227 28.1543C21.1524 28.0078 21.1524 28.0078 20.3613 28.0078C19.5703 28.0078 19.5703 28.0078 19.5 28.1543Z" fill="#F7B103"/>
<path d="M35.4023 28.0782C35.2793 28.2422 35.2734 28.4004 35.3848 28.541C35.4902 28.6699 35.543 28.6817 36.1348 28.6992C36.8848 28.7168 37.0488 28.6582 37.0781 28.3711C37.1133 28.0371 37.043 28.0078 36.2109 28.0078C35.6836 28.0078 35.4492 28.0313 35.4023 28.0782Z" fill="#F7B103"/>
<path d="M21.252 31.9746C20.6309 32.3262 20.5254 32.4551 20.6191 32.7129C20.748 33.0469 21.0762 32.9707 21.9258 32.4023C22.2539 32.1855 22.3418 31.9922 22.1953 31.8047C22.0313 31.5937 21.8555 31.6289 21.252 31.9746Z" fill="#F7B103"/>
<path d="M24.457 34.3945C24.3867 34.4238 24.1875 34.6992 23.9941 35.0449C23.707 35.5488 23.666 35.666 23.707 35.7949C23.7715 35.9766 24.041 36.0879 24.1875 36C24.3281 35.918 24.9551 34.8633 24.9609 34.7109C24.9609 34.4648 24.6973 34.2949 24.457 34.3945Z" fill="#F7B103"/>
<path d="M31.7695 34.4297C31.5645 34.5703 31.6055 34.8047 31.9395 35.3906C32.2383 35.918 32.3555 36.0352 32.5664 36.0352C32.7129 36.0352 32.8711 35.8535 32.8711 35.6953C32.8711 35.5254 32.3027 34.5352 32.1445 34.4238C31.9922 34.3125 31.9336 34.3125 31.7695 34.4297Z" fill="#F7B103"/>
<path d="M28.0781 35.4258C27.9551 35.5078 27.9492 35.5547 27.9492 36.2637C27.9492 37.084 27.9727 37.1484 28.2832 37.1484C28.6055 37.1484 28.6641 36.9844 28.6406 36.1816C28.623 35.584 28.6055 35.4902 28.5117 35.4141C28.3652 35.3086 28.2422 35.3086 28.0781 35.4258Z" fill="#F7B103"/>
</svg>
