<svg width="60" height="60" viewBox="0 0 60 60" fill="none" xmlns="http://www.w3.org/2000/svg">
<rect width="60" height="60" rx="30" fill="white" fill-opacity="0.19"/>
<g clip-path="url(#clip0_29_120)">
<path d="M17.2441 15.668C16.6348 15.8613 16.1016 16.3301 15.8027 16.9336L15.6152 17.3145V27.1875V37.0606L15.7676 37.3887C16.0313 37.9453 16.5469 38.4258 17.1211 38.6602C17.3496 38.7539 17.918 38.7598 23.8125 38.7891L30.2461 38.8184L30.3926 39.3164C30.9727 41.3496 32.6016 43.1367 34.5938 43.916C35.5781 44.3028 36.0527 44.3848 37.2949 44.3789C38.3027 44.3789 38.4609 44.3613 38.9707 44.2266C40.9629 43.6875 42.4805 42.5508 43.4824 40.834C44.373 39.3047 44.6543 37.2246 44.2031 35.4668C43.6934 33.4571 42.1523 31.5938 40.3418 30.7852L39.9609 30.6153L39.9902 25.9278C40.0078 23.3496 40.0313 20.5547 40.0488 19.7168C40.0898 17.9766 40.0371 17.3789 39.8145 16.9043C39.5977 16.4531 39.1699 16.0313 38.6895 15.8028L38.291 15.6153L27.8906 15.6035C19.4063 15.5977 17.4434 15.6094 17.2441 15.668ZM38.209 17.0215C38.3438 17.1153 38.5195 17.3145 38.5957 17.4551C38.7246 17.7071 38.7305 17.7598 38.7305 19.1133V20.5078H27.7734H16.8164V19.1836C16.8164 18.3047 16.8398 17.7715 16.8867 17.6133C16.9746 17.3262 17.3027 16.9805 17.5781 16.8926C17.7246 16.8457 20.6367 16.8281 27.873 16.834L37.957 16.8457L38.209 17.0215ZM38.7305 25.9922V30.2461L38.6016 30.2051C38.332 30.1231 36.6973 30.0996 36.2109 30.1699C34.3652 30.4395 32.6543 31.4531 31.5527 32.9238C30.6387 34.1309 30.1172 35.6367 30.1172 37.043V37.5586L23.8945 37.5469C18.1641 37.5293 17.6543 37.5235 17.4844 37.4297C17.2266 37.2891 16.9512 36.9551 16.8809 36.6973C16.8398 36.5449 16.8164 34.0664 16.8164 29.1035V21.7383H27.7734H38.7305V25.9922ZM36.6211 34.4063V37.4004L37.9395 40.0957C38.918 42.0996 39.2402 42.8086 39.1875 42.8379C39.1465 42.8672 38.877 42.9434 38.584 43.0137C37.7988 43.2071 36.6328 43.1953 35.8418 42.9903C32.1797 42.0235 30.3105 38.0332 31.957 34.6875C32.7363 33.0996 34.1543 31.9512 35.8594 31.5235C36.0996 31.4649 36.3691 31.4121 36.4629 31.4121L36.6211 31.4063V34.4063ZM38.9824 31.6231C40.582 32.127 41.8711 33.2403 42.5801 34.7285C42.8145 35.2207 43.125 36.2403 43.125 36.5098C43.125 36.6153 43.0254 36.6211 40.5176 36.6211H37.9102V34.0078V31.3887L38.209 31.4297C38.373 31.4531 38.7246 31.541 38.9824 31.6231ZM43.125 38.0215C43.125 38.0801 43.0605 38.3906 42.9785 38.7071C42.6738 39.9024 41.9297 41.0625 40.957 41.8477C40.6875 42.0645 40.4531 42.2461 40.4355 42.2461C40.4063 42.2403 38.3906 38.1446 38.332 37.9688C38.3145 37.9278 39.0762 37.9102 40.7168 37.9102C43.0313 37.9102 43.125 37.916 43.125 38.0215Z" fill="#F7B103"/>
<path d="M18.2168 18.2168C18.0762 18.3574 18.0469 18.4395 18.0469 18.6621C18.0469 18.8848 18.0762 18.9668 18.2168 19.1074C18.3867 19.2773 18.3984 19.2773 19.0605 19.2773C19.6465 19.2773 19.752 19.2598 19.8867 19.1543C20.1797 18.9199 20.1855 18.4336 19.8926 18.1758C19.752 18.0586 19.6816 18.0469 19.0664 18.0469C18.3984 18.0469 18.3867 18.0469 18.2168 18.2168Z" fill="#F7B103"/>
<path d="M21.293 18.1523C21.0351 18.3574 20.9648 18.6797 21.1172 18.9785C21.2461 19.2188 21.4394 19.2773 22.1191 19.2773C22.7168 19.2773 22.7402 19.2715 22.9219 19.1074C23.0859 18.9609 23.1152 18.8965 23.1152 18.6621C23.1152 18.4277 23.0859 18.3633 22.9219 18.2168C22.7344 18.0527 22.7168 18.0469 22.0723 18.0469C21.5391 18.0469 21.3926 18.0703 21.293 18.1523Z" fill="#F7B103"/>
<path d="M24.2637 18.129C23.8652 18.3516 23.8828 19.0254 24.2988 19.2129C24.4863 19.3008 25.6172 19.295 25.8105 19.2071C25.9922 19.125 26.1328 18.8848 26.1328 18.6622C26.1328 18.4395 25.9922 18.1993 25.8105 18.1172C25.5996 18.0176 24.4453 18.0293 24.2637 18.129Z" fill="#F7B103"/>
<path d="M26.4258 25.5996C25.8809 25.7695 25.3887 26.2324 25.2246 26.7246C25.1309 27.0059 25.125 27.7148 25.2129 28.0371C25.2598 28.207 23.0918 30.2695 22.8926 30.2461C22.3066 30.1641 21.8437 30.1699 21.5684 30.2637C21.1523 30.3984 20.7422 30.791 20.5371 31.2363C20.3965 31.5586 20.3789 31.6465 20.4023 32.0801C20.4258 32.4785 20.4551 32.6133 20.6074 32.877C21.3164 34.1426 23.2148 34.084 23.8535 32.7773C24.0117 32.4434 24.0645 31.8516 23.9648 31.4883L23.8887 31.2129L25.0254 30.1172C26.0801 29.0977 26.1738 29.0215 26.3086 29.0742C26.3906 29.1094 26.5723 29.1504 26.7129 29.168L26.9648 29.209L27.2168 29.8828L27.4629 30.5566L27.293 30.7734C26.9941 31.1602 26.8711 31.5059 26.8711 31.9922C26.8711 32.7246 27.2285 33.293 27.8789 33.6152C28.1602 33.7559 28.2891 33.7793 28.6816 33.7793C29.0742 33.7793 29.2031 33.7559 29.4844 33.6152C30.2695 33.2285 30.6738 32.3555 30.4453 31.5234L30.3574 31.2012L31.4473 30.1113L32.5312 29.0215L32.8066 29.1035C32.9766 29.1563 33.2285 29.1797 33.4922 29.1621C34.7051 29.0918 35.4668 27.9141 35.0625 26.707C34.916 26.2617 34.4238 25.7813 33.9668 25.6406C33.5215 25.5 32.9414 25.5293 32.5723 25.7109C31.8047 26.0859 31.3887 26.959 31.582 27.7734L31.6582 28.0781L30.5508 29.1914C29.6602 30.082 29.4199 30.293 29.3262 30.2637C29.2617 30.2402 29.0859 30.2109 28.9336 30.1934L28.6641 30.1641L28.4062 29.4551L28.1484 28.752L28.3125 28.5703C28.623 28.2305 28.7344 27.9082 28.7402 27.3633C28.7402 26.9531 28.7168 26.8125 28.5937 26.5723C28.2832 25.9277 27.6504 25.541 26.9355 25.5527C26.7363 25.5527 26.5078 25.5762 26.4258 25.5996ZM27.1875 26.8652C27.2812 26.9121 27.3867 27.0059 27.4219 27.0645C27.5684 27.3457 27.4219 27.832 27.1934 27.832C27.1406 27.832 27.0645 27.8613 27.0293 27.8965C26.8594 28.0664 26.3672 27.6797 26.3672 27.3691C26.3672 27.0996 26.666 26.7949 26.9414 26.7832C26.9824 26.7773 27.0937 26.8184 27.1875 26.8652ZM33.7676 27.0117C33.9785 27.2461 33.9727 27.4805 33.7559 27.7266C33.5273 27.9844 33.252 27.9844 32.9941 27.7324C32.7129 27.4453 32.7539 27.0527 33.0937 26.8652C33.3105 26.7422 33.5684 26.8008 33.7676 27.0117ZM22.4941 31.5C22.5703 31.5527 22.6641 31.6875 22.7109 31.793C22.8984 32.2383 22.4531 32.6836 22.0078 32.4961C21.7969 32.4082 21.6211 32.1504 21.6211 31.9277C21.6211 31.8633 21.709 31.7168 21.8203 31.6055C22.043 31.3828 22.2715 31.3477 22.4941 31.5ZM28.9043 31.4707C29.2676 31.6699 29.3437 32.0508 29.0742 32.3496C28.8457 32.6074 28.5176 32.6074 28.2891 32.3496C28.0137 32.0449 28.084 31.6523 28.4355 31.5C28.6758 31.3945 28.7461 31.3887 28.9043 31.4707Z" fill="#F7B103"/>
</g>
<defs>
<clipPath id="clip0_29_120">
<rect width="30" height="30" fill="white" transform="translate(15 15)"/>
</clipPath>
</defs>
</svg>
