<svg width="243" height="196" viewBox="0 0 243 196" fill="none" xmlns="http://www.w3.org/2000/svg">
<mask id="mask0_29_24" style="mask-type:alpha" maskUnits="userSpaceOnUse" x="0" y="0" width="243" height="196">
<rect width="242.827" height="195.551" rx="25" fill="#C4C4C4"/>
</mask>
<g mask="url(#mask0_29_24)">
<path opacity="0.2" d="M74.505 168.515C74.5274 174.128 73.3645 179.679 71.0958 184.788C68.8271 189.898 65.5064 194.445 61.361 198.118C52.4659 206.428 40.7758 210.892 28.7378 210.578C13.4557 210.578 1.38954 205.133 -7.46073 194.243C-16.3018 183.414 -21.0254 169.681 -20.7624 155.571C-20.7624 121.788 -11.7106 96.3652 6.39302 79.3033C24.4966 62.2413 44.5368 52.7953 66.5135 50.9653L66.5135 88.0227C55.4387 89.2301 44.9542 93.7405 36.3612 100.994C31.939 104.381 28.296 108.72 25.6889 113.704C23.0818 118.689 21.5741 124.198 21.272 129.843C24.9219 128.023 28.9368 127.102 32.9964 127.152C46.1228 127.152 56.3225 130.965 63.5955 138.59C67.2694 142.582 70.127 147.286 72.0004 152.425C73.8738 157.564 74.7254 163.035 74.505 168.515ZM186.229 168.515C186.256 174.129 185.096 179.682 182.827 184.792C180.558 189.902 177.234 194.448 173.085 198.118C164.19 206.428 152.499 210.892 140.461 210.578C125.214 210.578 113.245 205.133 104.552 194.243C95.8174 183.363 91.1572 169.652 91.4082 155.571C91.4082 121.788 100.364 96.3652 118.274 79.3033C136.185 62.2413 156.199 52.7594 178.316 50.8577V87.915C167.266 89.1692 156.818 93.7169 148.269 100.994C143.814 104.361 140.138 108.692 137.502 113.678C134.867 118.664 133.337 124.183 133.022 129.843C136.662 128.023 140.669 127.101 144.72 127.152C157.829 127.152 168.029 130.965 175.319 138.59C178.993 142.581 181.849 147.285 183.718 152.425C185.588 157.565 186.432 163.036 186.202 168.515H186.229Z" fill="#F1F1F1" fill-opacity="0.1"/>
</g>
</svg>
